<?xml version="1.0" encoding="UTF-8"?>
<svg id="Layer_1" data-name="Layer 1" xmlns="http://www.w3.org/2000/svg" viewBox="0 0 1474.03 493.22">
  <path d="m270.27,248.59h-41.85c0-12.85,8.84-21.32,22.1-21.32,11.79,0,19.75,8.47,19.75,21.32Z" fill="#ff6e2b"/>
  <path d="m412.34,198.19l-53.08.17v144.84c0,2.04-1.77,4.09-4.13,4.09h-52.16c-2.36,0-4.42-2.04-4.42-4.09v-4.53c5.48-2.2,10.55-4.8,15.05-7.74,2.06-1.17,2.65-2.34,2.06-4.38l-12.67-36.21c-.59-2.04-2.36-3.21-4.42-2.34h-.01c-13.26,6.13-30.05,9.64-45.08,9.64-24.76,0-24.76-18.4-24.76-18.4h94.6c2.65,0,4.13-1.17,4.42-3.5.88-4.38,1.18-8.76,1.18-13.14,0-53.15-28.88-84.39-77.8-84.39-1.9,0-3.77.04-5.61.15v-28.18c0-2.34,2.06-4.38,4.13-4.38h158.56c2.65,0,4.42,2.04,4.13,4.09" fill="#0089fe"/>
  <path d="m72.22,150.02c0-2.04,1.77-4.09,4.42-4.09h131.44c2.36,0,4.13,2.04,4.13,4.09v35.51c-29.63,12.51-47.74,40.52-47.74,77.5s18.1,64.22,47.74,76.88v3.14c0,2.04-1.77,4.38-4.13,4.38h-52.16c-2.36,0-4.42-2.04-4.42-4.09v-69.79h-53.93c-2.65,0-4.72-2.04-5.01-3.8l-4.13-40.88c-.29-1.75,1.18-3.8,3.83-3.8h59.24v-26.57l-78.95.13" fill="#0089fe"/>
  <g>
    <path d="m481.82,202.07c1,0,1.66.92,1.66,1.85v19.92c0,1.19-.66,1.98-1.66,1.98h-28.12v12h22.25c1,0,1.55.92,1.44,1.71l-1.55,18.46c-.11.79-.89,1.71-1.88,1.71h-20.26v31.52c0,.92-.78,1.85-1.66,1.85h-19.59c-.89,0-1.55-1.05-1.55-1.98v-87.18c0-.92.66-1.85,1.55-1.85h49.37Z" fill="#fff"/>
    <path d="m523.22,220.53c.89,0,1.55.79,1.55,1.85v17.15c0,1.05-.66,1.85-1.55,1.85h-2.88c-4.21,0-7.97,2.24-9.41,5.54v44.19c0,1.05-.78,1.98-1.66,1.98h-19.48c-.89,0-1.66-.92-1.66-1.98v-68.59c0-.92.77-1.85,1.66-1.85h12.51c.89,0,1.44.92,1.77,1.98l1.66,5.8c3.32-4.88,8.75-7.91,14.61-7.91h2.88Z" fill="#fff"/>
    <path d="m589.86,256.8c0,22.95-13.06,38.25-32.55,38.25s-32.55-15.3-32.55-38.12,13.06-38.25,32.55-38.25,32.55,15.3,32.55,38.12Zm-43.5.13c0,8.57,4.43,14.38,10.96,14.38s10.96-5.8,10.96-14.51-4.43-14.38-10.96-14.38-10.96,5.8-10.96,14.51Z" fill="#fff"/>
    <path d="m613.21,226.07c3.54-4.62,11.07-7.39,17.82-7.39,15.05,0,23.25,8.31,23.25,28.88v43.53c0,1.05-.78,1.98-1.66,1.98h-19.48c-.89,0-1.66-.92-1.55-1.98v-39.44c0-5.27-1.99-8.31-5.43-8.31-6.31,0-7.31,7.39-7.31,7.39v40.36c0,1.05-.78,1.98-1.66,1.98h-19.48c-.89,0-1.66-.92-1.66-1.98v-68.72c0-1.19.55-1.85,1.55-1.85h12.4c.77,0,1.44.4,1.77,1.32l1.44,4.22Z" fill="#fff"/>
    <path d="m697.66,220.53c1,0,1.66.79,1.66,1.85l-1.22,12.79c-.11,1.06-.77,1.98-1.66,1.98h-7.08v53.94c0,1.05-.78,1.98-1.66,1.98h-19.48c-.89,0-1.66-.92-1.66-1.98v-53.94h-6.31c-.77,0-1.55-.79-1.55-1.85v-12.8c0-1.19.77-1.98,1.55-1.98h6.31v-14.38c0-.92.77-1.71,1.66-1.85l19.48-2.24c.89-.13,1.66.92,1.66,1.85v16.62h8.3Z" fill="#fff"/>
    <path d="m756.77,285.69c.22.92,0,1.45-.77,1.98-5.87,4.61-14.39,7.38-22.92,7.38-19.59,0-32.66-15.3-32.66-38.12s12.84-38.25,32.1-38.25,29.22,14.11,29.22,38.12c0,1.98-.11,3.96-.44,5.94-.11,1.05-.66,1.58-1.66,1.58h-35.53s0,8.31,9.3,8.31c5.65,0,11.96-1.58,16.94-4.35.77-.4,1.44.13,1.66,1.05l4.76,16.35Zm-17.05-35.21c0-5.8-2.99-9.63-7.42-9.63-4.98,0-8.3,3.83-8.3,9.63h15.72Z" fill="#fff"/>
    <path d="m785.11,226.07c3.54-4.62,11.07-7.39,17.82-7.39,15.06,0,23.25,8.31,23.25,28.88v43.53c0,1.05-.78,1.98-1.66,1.98h-19.48c-.89,0-1.66-.92-1.55-1.98v-39.44c0-5.27-1.99-8.31-5.43-8.31-6.31,0-7.31,7.39-7.31,7.39v40.36c0,1.05-.78,1.98-1.66,1.98h-19.48c-.89,0-1.66-.92-1.66-1.98v-68.72c0-1.19.55-1.85,1.55-1.85h12.4c.77,0,1.44.4,1.77,1.32l1.44,4.22Z" fill="#fff"/>
    <path d="m895.58,197.45c.89,0,1.66.92,1.66,1.85v91.8c0,1.05-.77,1.98-1.66,1.98h-12.51c-.77,0-1.33-.79-1.77-1.98l-1.66-4.75c-4.21,5.27-11.29,8.7-18.71,8.7-17.49,0-29.23-15.3-29.23-38.25s11.73-38.12,29.23-38.12c5.2,0,10.18,1.85,13.51,5.01v-24.4c0-.92.77-1.85,1.66-1.85h19.48Zm-21.14,51.17c-1.33-4.35-4.87-7.25-8.75-7.25-6.09,0-10.18,6.07-10.18,15.3s4.1,15.83,10.18,15.83c3.87,0,7.42-2.9,8.75-7.26v-16.62Z" fill="#fff"/>
  </g>
  <g>
    <path d="m999.59,208.12c1.05,0,1.74.87,1.63,1.74l-1.74,18.9c-.12.99-1.04,1.74-1.86,1.74h-17.31v61.67c0,.87-.7,1.74-1.63,1.74h-20.56c-.93,0-1.74-.87-1.74-1.74v-61.67h-19.28c-.81,0-1.63-.75-1.63-1.74v-18.77c0-1,.81-1.87,1.63-1.87h62.49Z" fill="#fff"/>
    <path d="m1027.58,203.77c.93,0,1.74.87,1.74,1.86v25.12c3.14-4.35,8.71-6.96,14.98-6.96,13.94,0,22.19,8.46,22.19,22.88v45.38c0,.99-.81,1.86-1.74,1.86h-20.44c-.93,0-1.74-.87-1.63-1.86v-39.04c0-4.98-2.09-7.83-5.69-7.83-6.62,0-7.67,6.96-7.67,6.96v39.91c0,.99-.81,1.86-1.74,1.86h-20.44c-.93,0-1.74-.87-1.74-1.86v-86.41c0-.99.81-1.86,1.74-1.86h20.44Z" fill="#fff"/>
    <path d="m1099.01,210.98c0,7.33-5.11,12.31-12.78,12.31s-12.78-4.97-12.78-12.31c0-7.71,5.11-12.81,12.78-12.81s12.78,5.1,12.78,12.81Zm-2.44,14.55c.93,0,1.74.87,1.74,1.74v64.78c0,.99-.81,1.86-1.74,1.86h-20.45c-.93,0-1.74-.87-1.74-1.86v-64.78c0-.87.81-1.74,1.74-1.74h20.45Z" fill="#fff"/>
    <path d="m1124.68,230.75c3.72-4.35,11.61-6.96,18.7-6.96,15.8,0,24.39,7.83,24.39,27.23v41.03c0,.99-.81,1.86-1.74,1.86h-20.44c-.93,0-1.74-.87-1.63-1.86v-37.18c0-4.97-2.09-7.83-5.69-7.83-6.62,0-7.67,6.96-7.67,6.96v38.05c0,.99-.81,1.86-1.74,1.86h-20.44c-.93,0-1.74-.87-1.74-1.86v-64.78c0-1.12.58-1.74,1.63-1.74h13.01c.81,0,1.51.37,1.86,1.24l1.51,3.98Z" fill="#fff"/>
    <path d="m1197.62,203.77c.93,0,1.74.87,1.74,1.74v41.28l10.8-19.77c.47-.87,1.63-1.49,2.67-1.49h23.23c.93,0,1.28.62.81,1.49l-17.19,30.46,21.02,34.94c.58.87.12,1.49-.81,1.49h-24.74c-.81,0-1.98-.62-2.44-1.49l-13.36-24.62v24.25c0,.99-.81,1.86-1.74,1.86h-20.44c-.93,0-1.74-.87-1.74-1.86v-86.53c0-.87.81-1.74,1.74-1.74h20.44Z" fill="#fff"/>
    <path d="m1296.58,286.94c.23.87,0,1.37-.81,1.87-6.16,4.35-15.1,6.96-24.05,6.96-20.56,0-34.27-14.42-34.27-35.93s13.47-36.06,33.69-36.06,30.67,13.3,30.67,35.93c0,1.86-.12,3.73-.47,5.59-.12.99-.7,1.49-1.74,1.49h-37.29s0,7.83,9.76,7.83c5.92,0,12.55-1.49,17.77-4.1.81-.37,1.51.12,1.74.99l5,15.42Zm-17.89-33.19c0-5.47-3.14-9.08-7.78-9.08-5.23,0-8.71,3.61-8.71,9.08h16.5Z" fill="#fff"/>
    <path d="m1345.13,225.52c.93,0,1.63.75,1.63,1.74v16.16c0,.99-.7,1.74-1.63,1.74h-3.02c-4.41,0-8.36,2.11-9.87,5.22v41.65c0,.99-.81,1.86-1.74,1.86h-20.44c-.93,0-1.74-.87-1.74-1.86v-64.65c0-.87.81-1.74,1.74-1.74h13.13c.93,0,1.51.87,1.86,1.87l1.74,5.47c3.49-4.6,9.18-7.46,15.33-7.46h3.02Z" fill="#fff"/>
    <path d="m1357.9,272.27c.23-.75.93-.87,1.51-.5,4.53,2.86,9.41,5.1,13.36,5.1,2.44.25,4.06-1.24,4.06-3.11,0-6.34-25.44-4.35-25.44-27.73,0-13.3,10.57-22.26,26.37-22.26,7.55,0,16.61,2.86,22.77,7.09.58.5.93,1.12.7,1.74l-5.92,14.67c-.23.75-.93.87-1.51.5-4.53-3.11-9.41-5.1-13.36-5.1-2.44-.25-4.06.99-4.06,2.98,0,6.59,25.44,4.23,25.44,27.85,0,13.3-10.22,22.26-25.67,22.26-7.55,0-16.96-2.86-23.46-7.09-.58-.62-.93-1.24-.7-1.99l5.92-14.42Z" fill="#fff"/>
  </g>
</svg>